<svg width="38" height="21" viewBox="0 0 38 21" fill="none" xmlns="http://www.w3.org/2000/svg">
<path d="M37.7886 8.90902C37.2281 7.83252 35.5846 7.29546 32.8558 7.29071C31.9675 7.29071 31.0792 7.35012 30.1981 7.46894C30.1482 7.47369 30.0936 7.48082 30.0437 7.49032C29.8799 7.51409 29.716 7.53785 29.5545 7.56637C29.3027 5.44664 28.614 3.74991 27.4882 2.4738C26.0894 0.888763 24.111 0.064162 21.5555 0.00475274C21.5507 0.00237637 21.5436 0.00237637 21.5389 0.00475274C21.4415 0 21.3465 0 21.2491 0C20.3134 0 19.437 0.10456 18.6247 0.306552C17.8125 0.508544 17.0739 0.810343 16.4136 1.2072C15.9814 1.46622 15.58 1.76802 15.2142 2.11022C14.8627 1.77753 14.4756 1.48048 14.0481 1.22383C12.7181 0.408736 11.096 0 9.18412 0C9.08675 0 8.99413 0 8.9015 0.00475274H8.88487C8.7685 0.00237637 8.64975 0 8.531 0C7.1915 0 5.99925 0.211497 4.96137 0.624986C3.92587 1.04323 3.05187 1.65871 2.33937 2.4738C1.62687 3.28652 1.083 4.2846 0.70775 5.46566C0.330125 6.64671 0.1425 7.99887 0.1425 9.5245V20.817L0 20.9834H0.1425V21H4.84025V9.40093C4.84025 7.7945 5.16087 6.59443 5.80212 5.79835C6.44337 5.00464 7.41237 4.61016 8.71625 4.61016C8.82787 4.61016 8.93713 4.61254 9.04163 4.61967C10.1603 4.68383 11.0105 5.08544 11.5852 5.82924C12.1196 6.52314 12.4284 7.53072 12.5067 8.85674C12.4782 8.86862 12.4521 8.88288 12.4236 8.89476C11.2575 9.42469 10.1579 10.0758 9.1295 10.8458C8.09875 11.6133 7.163 12.4973 6.32462 13.4954L5.49575 14.4769V20.0922L11.1292 13.4194C11.5734 12.8942 12.0365 12.4403 12.5281 12.0506V20.9548L12.4949 20.9929H12.5281V21.0024H17.195V20.9952V10.3063C17.3541 10.2992 17.5132 10.2944 17.6771 10.2944C17.7365 10.2944 17.7935 10.2944 17.8529 10.2968C19.0356 10.323 19.7172 10.5891 19.9001 11.0953C20.0854 11.6252 19.7149 12.4427 18.7862 13.5429L17.8529 14.648V20.2277L23.4911 13.5453C23.9376 13.0178 24.3984 12.5591 24.8852 12.1623V21.0024H29.6756V10.3111C29.8181 10.3039 29.963 10.3016 30.1079 10.3016C30.1839 10.3016 30.2575 10.3039 30.3287 10.3063C30.8821 10.3182 31.3215 10.3847 31.6492 10.5012C32.0197 10.6366 32.2549 10.8315 32.3546 11.0929C32.4544 11.3519 32.4211 11.6751 32.2525 12.0696C32.0886 12.4593 31.7846 12.9156 31.3476 13.4336L30.3287 14.6408V20.3679L36.1095 13.5192C37.791 11.5278 38.3515 9.99264 37.7934 8.91615L37.7886 8.90902ZM24.2606 8.08442C23.3652 7.55449 21.9545 7.28596 20.026 7.28596C19.3729 7.28596 18.7269 7.31685 18.088 7.38339C17.8624 7.40477 17.6367 7.43091 17.4135 7.46181C17.5702 6.81068 17.8149 6.27362 18.1379 5.84825C18.7672 5.02365 19.7339 4.61491 21.0354 4.61491C21.1494 4.61491 21.261 4.61729 21.3702 4.62442C21.8809 4.65294 22.3321 4.75037 22.7287 4.91909C23.2085 5.12108 23.6027 5.42288 23.9186 5.81973C24.2321 6.21659 24.472 6.718 24.6359 7.31447C24.738 7.68756 24.8045 8.09867 24.8425 8.54543C24.6857 8.37909 24.491 8.22462 24.2606 8.08679V8.08442Z" fill="#F3F3F3"/>
</svg>
