<svg width="126" height="112" viewBox="0 0 126 112" fill="none" xmlns="http://www.w3.org/2000/svg">
<path d="M67.4609 9.42004H67.5009L67.4909 48.88L76.0309 48.78H87.7409C96.4509 48.78 103.441 51.2501 108.381 55.5201C103.441 59.7701 96.4409 62.23 87.7409 62.23H76.0309L67.4909 62.2V101.59H67.4409V111.1H87.7209C111.011 111.1 125.281 96.36 125.281 75.26C125.281 67.78 123.491 61.09 120.131 55.58C123.491 50.07 125.291 43.3801 125.291 35.9001C125.291 14.8101 111.031 0.0500391 87.7509 0.0400391H67.4709V9.42004H67.4609ZM116.741 75.25C116.741 90.74 106.011 101.59 87.7209 101.58H76.0109V71.73H87.7209C98.6609 71.73 107.611 68.48 114.021 62.85C115.801 66.47 116.731 70.65 116.731 75.25H116.741ZM87.7409 9.42004C106.031 9.42004 116.751 20.28 116.751 35.89C116.751 40.48 115.811 44.6601 114.001 48.2701C107.591 42.64 98.6509 39.39 87.7309 39.39H76.0209V9.41003H87.7309L87.7409 9.42004Z" fill="#F4F3F0"/>
<path d="M57.83 9.39001H57.79V48.85L49.25 48.75H37.54C28.83 48.75 21.83 51.21 16.9 55.48C21.84 59.73 28.83 62.19 37.54 62.19H49.25L57.79 62.16V101.55H57.83V111.06H37.55C14.26 111.06 0 96.31 0 75.21C0 67.73 1.79999 61.04 5.14999 55.53C1.78999 50.02 0 43.33 0 35.85C0 14.76 14.27 0 37.55 0H57.83V9.39001ZM8.53 75.21C8.53 90.7 19.26 101.55 37.54 101.55H49.25V71.7H37.54C26.6 71.7 17.65 68.44 11.24 62.81C9.46001 66.43 8.53 70.61 8.53 75.21ZM37.55 9.39001C19.26 9.39001 8.53999 20.24 8.53999 35.85C8.53999 40.44 9.48 44.62 11.28 48.23C17.69 42.6 26.63 39.36 37.55 39.36H49.26V9.39001H37.55Z" fill="#F4F3F0"/>
</svg>
