<?xml version="1.0"?>
<svg id="_Шар_1" xmlns="http://www.w3.org/2000/svg" version="1.1" viewBox="0 0 1000 1000">
  
  <defs>
    
  </defs>
  <path class="st0" d="M359.01,127.91c11.72-1.93,24.29-2.91,37.7-2.91,55.53,0,93.35,15.88,113.46,47.6,20.11,31.74,24.41,74.74,12.93,129l-68.22,323.4h-119.92l62.48-294.33c5.74-28.58,5.14-49.9-1.8-63.95-6.95-14.05-24.3-21.08-52.06-21.08-7.67,0-14.97.61-21.9,1.82-6.94,1.22-13.77,3.03-20.47,5.45l25.13-117.73c10.05-2.91,20.94-5.32,32.67-7.27h0Z"></path>
  <path class="st0" d="M692.72,722.1c-11.72,1.93-24.29,2.9-37.7,2.9-55.53,0-93.35-15.87-113.46-47.6-20.11-31.74-24.41-74.74-12.93-129l68.22-323.4h119.92l-62.48,294.33c-5.74,28.58-5.14,49.89,1.8,63.95,6.95,14.05,24.3,21.08,52.06,21.08,7.67,0,14.97-.61,21.9-1.81,6.94-1.22,13.77-3.03,20.47-5.45l-25.13,117.73c-10.05,2.91-20.94,5.32-32.67,7.27h0Z"></path>
  <g>
    <path class="st1" d="M365.44,810.97c-.12,1.25,1.55,2.52,3.16.66l-.85-3.76-2.31,3.1h0Z"></path>
    <path class="st1" d="M382.05,805.52c1.14-3.1,1.79-7.44-1.66-8.69-.05,4.33-1.46,3.7-1.29,8.67-1.62,1.86-3.97,1.84-4.46.61-.1,1.23-3.38,1.81-3.02,4.31,4.12.05,7.28-2.42,9.1-6.77,1.17.01,1.08,1.25,1.33,1.87h0Z"></path>
    <path class="st1" d="M556.02,643.76l-1.33.88c.45-.16.89-.48,1.33-.88Z"></path>
    <path class="st1" d="M649.27,529.35c-.59.96-.59,1.54-.37,1.77.43-.98.75-1.8.37-1.77Z"></path>
    <path class="st1" d="M666.99,510.21c-.37.44-.68.82-1.01,1.22.58-.34,1.04-.77,1.01-1.22Z"></path>
    <path class="st1" d="M556.02,643.76l3.43-2.24c-.66-.94-1.97.96-3.43,2.24Z"></path>
    <path class="st1" d="M401.58,778.11c-.51.66-.82,1.34-1.02,2.06.41-.55.83-1.07,1.28-1.57-.09-.16-.18-.31-.26-.49Z"></path>
    <path class="st1" d="M514.08,693.63l-.82.87c.04.53.15,1.09.32,1.69l.5-2.56Z"></path>
    <path class="st1" d="M479.28,729.57c.9-.7-.87-3.06-1.46-4.28.39,1.3.19,2.3-.36,3.16.38.41.95.78,1.81,1.12h0Z"></path>
    <path class="st1" d="M417.74,779.68l-.78,1.23c.19-.34.57-.83.78-1.23Z"></path>
    <path class="st1" d="M538.99,667.9c.38.23.78.36,1.08.37-.27-.25-.65-.35-1.08-.37Z"></path>
    <path class="st1" d="M309.66,238.96c-.04-.21-.15-.31-.2-.48-.15.38-.15.6.2.48Z"></path>
    <path class="st1" d="M251.4,249.23l.66-.48c-.16-.53-.32-1.06-.55-1.55l-.11,2.03Z"></path>
    <path class="st1" d="M688.27,463.23c-.03.11-.04.15-.07.25.24,1.56.24.69.07-.25Z"></path>
    <path class="st1" d="M568.3,373.52c-5.44.78,4.31-7.36-3.27-5.36,1.24.51-2.59,7.58,3.27,5.36Z"></path>
    <path class="st1" d="M402.81,777.56c.49-.46.99-.92,1.51-1.35-.75.54-1.22.95-1.51,1.35Z"></path>
    <path class="st1" d="M565.03,368.16l-.02-.02-.77.23c.32-.08.51-.13.78-.2h.01Z"></path>
    <path class="st1" d="M595.29,402.97c.24.51.68.88,1.14,1.24-.04-.3-.3-.66-1.14-1.24Z"></path>
    <path class="st1" d="M675.03,431.79l-1.02-2.2c.32.94.68,1.62,1.02,2.2Z"></path>
    <path class="st1" d="M553.93,409.69c-1.1-.13-1.5-.47-2.92.07.15.13.3.22.48.31.49-.45,1.17-.73,2.44-.38Z"></path>
    <path class="st1" d="M511.07,415.58c.26.18.59.3.89.45.41-.12.9-.26,1.32-.38l-2.21-.06h0Z"></path>
    <path class="st1" d="M429.97,195.18c-1.11-.53-1.92-1.24-2.6-1.97,1.2,1.81-4.53,4.28,2.6,1.97Z"></path>
    <path class="st1" d="M402.68,779.33c-.29-.72-.26-1.23.13-1.77-.35.34-.67.69-.97,1.04.19.41.44.74.84.73h0Z"></path>
    <path class="st1" d="M554.52,432.81l-6.61.29c1.87.08,4.27-.04,6.61-.29Z"></path>
    <path class="st1" d="M717.83,160.03c-.3-.13-.65-.22-.96-.33.23.28.57.4.96.33Z"></path>
    <path class="st1" d="M528.53,436.09c-1.32-.84-2.65-1.25-3.99-1.45-.24.27-.52.5-.64.86l4.63.59h0Z"></path>
    <path class="st1" d="M427.35,193.18l.02.03s0-.02-.02-.03Z"></path>
    <path class="st1" d="M387.3,212.89c6.08-1.87,1.66-4.49,2.26-6.99,6.93-3.37,4.24,1.61,7.31,2.68,4.2-2.42,6.61-6.9,10.04-7.85.44.52,1.17.53.63,1.53,3.89-4.48,14.26-4.4,18.8-9.78.51.2.82.45,1,.7-1.45-1.58-2.14-3.41-2.34-4.8,2.74-.88,4.46-3.85,6.19-1.74-1.72.43-1.58,1.44-2.15,2.43l2.59-1.9c3.59,2.7-3.61,2.37-2.86,4.93,5.28-2.85,11.11-7.48,15.74-7.66,1.83,3.16-9.85,3.88-3.22,5.35-2.35.18-4.73.3-7.07.54,6.61,3.87-4.15.81,2.15,5.18,9.06-1.41,9.36-4.39,18.41-5.76,1.48-2.43-1.4-2.63.09-5.06,11.67-6.82,12.07,6.09,20.15-.78,1.83-2.86,1.73-7.44,8.88-6.74l-1.33,4.43c8.67-1.69,3.6-6.84,13.27-6.18-1.27,1.88-6.51,2.76-5.09,2.94,6.56,1.81,3.65-3.11,8.17-4.09l1.69,3.25c4.54-1.27,9.2-3.07,14.01-4.92,4.81-1.8,9.79-3.51,14.86-4.82-.37,1.14-1.92,2.56.68,3.17,12.56-4.36,27.74-4.45,40.51-4.48l4.34-3.69c1.12-.12,2.27,1.07,1.15,1.83,5.05.46-.03-1.95,2.15-3.47,2.76-.6,3.93,1.22,2.3,2.37,4.13-1.88,10.09-4.13,16.23-5.66,6.15-1.4,12.47-2.04,17.22-.94l-1.68,1.11c7.24.44,7.35-7.2,14.28-5.02l-1.22.65c7.82-.04,15.94-1.14,23.64-1.79,7.71-.6,15.01-.52,21.06,1.36.99-2.27,4.86-2.03,8.56-1.99,3.63.06,6.89.06,7.35-3.02,4.26,1.49,5.66,2.59,7.47,3.58,1.73,1.05,4.08,1.82,8.88,3.69,1.26.4,2.43-.38,3.7-1.12,1.31-.8,2.76-1.6,4.45-1.35l-1.02,3.04c1.63-.55,3.4-1.1,5.13-1.38.08,1.46.04,2.9-.18,4.33l1.24.31,1.14.43c-.53-.75-.78-2.41-.16-3.08,2.19.61,3.82,2.82,4.11,4.96.42,2.09-.32,3.91-.96,4.25,1.91,1.84,3.48,4.33,4.37,7.65-.64-.12-1.06-.57-1.42-1.13-.45-.51-.84-1.12-1.3-1.61,1.92,2.03.93,2.51.07,2.61-.94.23-1.67.12-.43,2.49.81-.56,1.85.54,2.48.75-2.09,2.21-3.64,7.8-5.14,12.72l-1.61-1.77c-4.02,7.65-8.57,17.12-16.23,25.85,3.55-2.56,5.86.62,3.87,3.51l-3.49-1.12c.14,3.06,3.34-1.95,2.3,3.22-3.19,3.13-4.87-.23-4.07-2.86l-2.6,4.85c-.97-.42-.56-1.73-1.33-2.81.15,3.04-8.56,4.83-7.91,9.61l-.96-.44c-7.97,8.71-10.52,13.63-17.07,20.7,2.01,2.13-1.06,4.43-1.33,8.15-5.52,4.59-12.71,8.57-18.58,14.77-3.21,5.29.51,3-.18,6.15-2.15-1.54-8.11,4.58-6.27.13-7.16,7.36-9.02,9.5-17.11,19.9,1.79-.15,3.29-.87,3.29.35-1.46,1.91-4.74,2.8-5.36,1.63l.28-.62c-4.07,6.37-11.57,10.69-18.86,14.55-7.23,3.95-13.98,7.75-16.74,13.51l.33-.62-7.48,9.88c-4.58,3.16,1.31-3.67-2.89-2.35-3.64,5.82-7.86,8.78-11.87,11.5-4.03,2.71-7.93,5.09-11.37,9.42-5.71-.71-11.42,3.83-17.4,8.67-6.01,4.79-12.09,10.19-18.12,11.21l1.58,1.18c-1.38,3.1-3.5,1.05-5.5,1.87,1.05,1.03,3.53-.35,2.6,1.47-19.03,15.61-43.91,25.02-66.48,35.58-8.18,4.01.1,11-12.24,12.5l1.28-4.56c-4.24,3.61-8.91,6.62-13.74,9.36l10.12,24.35c12.38-4.45,25.45-6.73,37.12-12.18-.85,1.03-.62,2.04-2.32,2.45,4.26,1.44,13.6-3.21,13.24-5.18,2.78-.4,1.04,1.65,2.95,2.27,3.99.57,8.66-5.1,11.14-3.1.42.32-.88,1.01-1.52,1.34,2.17-1.75,11.36-1.9,8.49-4.3,6.85.05,12.49-3.53,18.08-2.71,2.99-3.71,11.63-.18,12.12-4.78.15,4.68,12.18,2.26,16.21-.34-1.27,1.57,3.84,1.06,2.37,3.2,4.81-.51,9.17-1.77,8.12-4.11,9.32,4.83,17.74-5.8,23.17,1.18,7.14-1.57,14.08-2.81,20.86-3.73,6.77-.97,13.1-1.53,19.3-1.42-.47,2.3-3.78,2.07-7.08,2.08-3.28-.03-6.52.13-6.28,2.59,5.89-.89,10.48-2.08,15.07-2.64,4.54-.54,9.2-.46,14.08,1.78,2.33,1.51-2.09,1.38-3.18,1.98,5.26.5,9.67,2.63,12.98,5.24,3.42,2.56,5.85,5.59,8.87,8.62-.42.19-1.15-.41-1.88-.9.86,1.31.93,3.46,2.84,2.47l-1.22-1.16c.82-1.86,2.93-1.23,5.26.32,2.01,1.62,4.17,4.1,4.87,4.16-3.27-1-3.23,1.57-3.42,3.68-.3,2.24-1.12,3.96-5.05,1.96.44,1.03,1.55,2.4,2.96,2.11-.12.87-.46,1.45-.95,1.59-.5.14-1-.21-1.89-1.01.93,6.16,3.35,4.27,2.32,10.38-.98-.23-1.12-1.54-2.27-2.34,1.5,3.27,2.66,7.11.06,12.12-.49-.52-1.41-.18-.91-1.72-2.71,8.81-1.47,17.53-8.84,26.1-2.14-5.09-3.2,2.41-6.83.77-.7,1.84-1.48,3.65-2.27,5.48l2.89-.88c-2.88,4.19-3.5,9.73-7.18,12.71l1.01-4.16-5.24,8.57,4.5-3.75c-1.53,5.57,4.33,2.39-.71,7.56.53-1.41-3.17,4.34-6.65,5.26v-.02c-.57,2.86-1.16,5.82-4.3,8.43-1.61.09-2.96-3.22-4.02-3.17,1.05,4.03-6.75,10.58-5.97,15.32.01-1.38-1.58-2.65-2.13-2.61l.79,3.35c-2.19,1.46-2.73,1.49-3.78.19-4.94,5.61,5.37,1.11-1.73,6.83.26-.68-.26-.66.31-2.05-6.33,6.34-9.11,14.69-15.29,20.23-4.57-.54,3.7-6.17-.61-6.05-6.78,9.6-11.5,22-19.56,30.15l1.69-1.36c3.24,4.74-7.51,4.81-9.19,10.91.59-1.35-1.17-3.39-.94-2.71-5.69,5.4-9.32,12.99-15.7,23.13l-.12-2.04c-3.96,2.65-8.57,8.59-12.34,11.88.08,2.04-1.98,4.02.7,4.1-8.06,3.08-12.22,9.12-16.09,15.2-3.85,6.08-7.51,12.12-14.67,14.71,1.11-1.19,1.77-3.66.87-2.72l-7.03,9.28c2.37,1,2.1-.09,5.13-.57.02,2.05-1.44,5.19-3.43,7.27,2.45-4.89-2.82-2.64-5.33-1.94.79.24.84,1.36,1.51,1.74-7.29,1.37,2.77,4.09-5.1,8l-.6-1.19c-1.71,2.66-2.52,5.86-5.13,7.99-2.95-.97,1.39-3.26-.09-5.02-3.17,3.44-2.74,10.32-7.71,11.37.88-1.94,2.86-4.01,3.72-5.97-5.56.99-5.32,1.97-8.14,4l.29-.18-6.69,4.5,2.06-.78c.89,9.26-7.55,9.33-9.95,18.22,2.43-8.56-.88-2.74-2.64-5.42-2.07.76-4.97,2.15-4.95.92-.95,4.4-5.88,2.83-7.14,9.14-.86-.57-2.96,2.67-4.09.24-2.96,3.91,2.04.5,2.62,1.7-3.01,7.74-15.73,8.83-20.41,19.62-5.53,7.7-4.61,11.31-9.92,18.34-3.25.71-.66-4.35-.66-4.35-4.5,1.99-6.96,4.53-9.5,8.34.09-1.26-1.09-1.21-2.86-1.19-2.52,2.5.62,4.33-3.92,6.24-.13-1.38-.53-3.42.03-5.38-2.56,3.41-4.46,7.53-7.15,11.04-2.02-.6.25-3.74.65-5.6-3.18,3.75-8.5,9.41-7.88,12.49l3.03-1.24c-1.26,1.26-2.24-1.25-1.58-2.48,1.75-4.38,5.19-3.16,6.03-2.54l-1.92,2.5c6.26,2.47,8.81-8.79,13.73-12.55l.87,4.95,2.47-6.88c1.75-.05,4.04,1.15,2.17,3.68,4.75-1.35,1.94-3.77,6.39-4.53.56,0,.56.28.38.67l2.41-3.86c-.04,1.25,2.57,1.8.15,3.11,7.53-3.34,7.31-10.79,11.69-10.33l-.3.64c7.04-8.43-1.35-3.07,2.14-11.32l9.33,2.07-1.36-3.06c.9-.67,2.7-2,3.26-.79,1.6-4.42-1.46-.53-1.07-3.68,5.99-1.48,9.9-11.16,14.27-8.31-.26-3.09-5.02,2.2-2-2.98,4.94,2.81,4.19-5.26,9.48-6.84.85,3.06-3.58,5.21,1.75,3.62-1.11-5.44,7.63-5.94,9.98-9.52-2.5-2.84,5.36-7.47,9.46-13.26.59,1.22,10.69-7.9,16.24-11.59l.32.58c-1.85-3.56,3.38-7.82,6.14-11.94,1.52,1.72,1.56,2.98.47,5.61l3.16-3.35c-.14-1.63.38-3.12,2.12-5.58l1.27,2.8c4.08-4.58,6.11-11.17,12.79-15.7-1.66-2.13-9.65-.45-5.36-7.76,1.26.75,3.28,2.2,2.24,4.2.35-.65.84-2.68,2.26-3.32l-.46,4.08c3.2-1.91-.22-2.75,1.88-4.7,1.47,1.43,2.51-.57,3.43.84-.35.67-2.31,1.27-2.46,2.62,2.45-2.13,5.99-4.18,8.02-4.09-1.05-.58-2.04-1.86-.64-3.78,4.02-4.6,3.25.12,6.44-1.81-.08-2.06,3.62-4,1.4-6.12,1.2-1.33,2.49-.62,3.57-.58,1.09-3.27,9.53-11.32,4.71-10.81l-.7.46c.05-.16.17-.29.24-.48l-.02.02.02-.02c4.6-9.72,15.37-15.16,21.11-23.79l.77.67c3.03-5.47,8.19-10.97,9.28-15.74,1.16-1.39,4.18-2.11,4.63-.74,2.41-4.1,1.84-5.23,7.38-9.47-1.55,4.81,2.25-.28-2,4.6,4.5-4.21,6.65-4.27,8.55-11.14.66,3.38,5.47-1.54,6.67-4.29l-4.15,2.18c1.73-2.79,3.72-4.85,5.65-7.02l1.77,3.37c10.96-7.4,8.19-22.15,19.43-25.58.04-4.11-5.42,4.43-5.91.35,3.8-4.32,11.36-6.17,12.45-7.61,6.25-5.21.36-8.87,6.21-14.8-1.61.14-4.86-1-2.22-6.66,3.71-4.39,8.33-2.72,7.01.81-.72,1.18-1.43,1.49-1.73,1.2-.72,1.77-1.71,4.07.7,2.99l-.57-1.33c2.69-1.58,7.2-8.1,7.77-5.42,1.58-4.22-.57-2.68-2.97-.44,5.72-4.92,6.88-9.41,12.13-15.5-1.26.71-3.11.9-2.43-.14,7.33-9.14.68-5.55,3.99-12.59,3.7-3.09,3.28,3.53,5.45-4.34,3.18-3.98,3.48.44,3.45,2.68,1.06-7.75,7.09-12.45,8.79-16.92l-.32,4.37c.2-2.63.84-4.6,1.45-6.65-1.01.58-2.05,1.11-3.07,1.63,1.18-2.18,1.59-4.3,2.6-4-1-2.84-4.41.85-5.47-4.37,1-1.39.93-3.93,1.19-6.07.21-2.17.36-4.12,2.06-4.63-.79,5.23-.15,4.95.99,4.6,1.08-.37,2.43-.98,2.03,3.61-.15-1.83.28-3.88.78-6.56.39-.38.66.42.8,1.18,1.83-5.34.74-6.78-.62-8.02-1.45-1.28-2.79-2.43-3.86-7.92,2.05,1.11,3.05-3.38,1.91-5.2,1.39,4.71-2.33,2.79-4.91-.58-.11-.9-.24-1.69-.41-2.38-.24-.67-.49-1.24-.74-1.75-.51-1-1.05-1.71-1.58-2.29-1.01-1.19-2.06-1.79-3.03-3.31.6,1.26,1.17,2.51,1.52,3.87-2.15-.42-3.74-3.29-6.98-6.53.4-.6,1.34,0,1.96.64.63.65,1.09,1.24.87.36-2.8-1.13-3.99-3.74-5.75-6.63-1.68-2.89-4.06-5.92-7.76-6.86-2.38-2.68,1.42-3.18-.95-5.38-4.39-.81-6.18-2.11-8.16-3.52-1.94-1.38-4.07-2.85-8.42-2.81,1.84,3.01,2.21,2.37-3.81,3.59,4.4.28,8.9.76,13.51,1.92-3.24.07-6.35.39-9.34.89,3.76.95,8.54.88,10.69,2.31-4.6.32-3.9.05-2.89,2.55-1.83-2.69-4.64-3-7.42-3.02-2.82.02-5.62.29-8.36-1.42l1.14-6.04c-9.16-4.1-16.78,1.42-27.96,0l3.63,1.03c-1.52,2.44-6.93.42-10.56,1.45.3-2.06-1.99-2.78-3.58-3.99.23,1.52-8.27.12-9.12,4.25l-5.13-2.44c-9.17-.66-9.98,6.45-18.65,6.38,2.43-2.44-1.64-3.6,4.07-5.61-2.91.17-5.56.04-5.49,1.46-1.82-1.11-7.79,3.45-10.63,1.81-1.13,1.03-1.3,3.21-4.54,3.4-.4-.37-.1-1.01-.1-1.01.1,1.01-4.9,1.93-1.82,3.88-9.65-5.35-24.55,3.68-33.06-.31-6.14,1.75-13.51,3.81-19.09,5.16.24-.68-.19-1.01.92-1.02-8.17-.21-3.55,6.69-12.74,6.64-5.23-2.2,4.25-2.82,1.18-3.4-2.76-6.33-10.4,3.35-17.23,1.07l1.33-.75c-5.12-1.08-10.36,5.35-17.76,7.01,0,0,.19-.68-.24-.99-3.39,3.95-10.24,7.41-16.2,10.25l2.81,6.76c1.11-.78,2.13-1.5,3.1-2.19-.78,3.4-2.27,2.78.17,4.52,2.7-1.86-2.81-3.39,2.57-7.08,2.53.3,7.26-.76,9.16,1.48l-5.36,3c4.51,1.81,6.98-3.82,10.14-4.76l.4,1.62c8.07-4.93,6.14-8.67,15.1-13.31l-1.51-.56c2.78-6.23,5.19-.23,8.42-5.63l3.5,2.7c2.64-2.73,8.96-9.91,14.12-13.92-1.56,4.51-7.35,9.72-10.5,13.71,3.13-1.82,10.43-6.55,10.99-9.24-1.04,1.08-2.1,2.88-3.67,3.07,2.18-4.98,6.25-9.43,12.35-13.19,1.58,3.71,5.82,1.64,10.63-1.06,4.78-2.75,10.04-6.24,13.95-5.11,4.53-4.73,9.94-8.01,15.68-11.34,5.75-3.29,11.98-6.41,17.8-11.1-7.9-1.85,3.39-2.73-1.12-7.3,2.53-2.38,3.65-3.07,4.14-2.93,3.56-1.06,7.15-2.1,10.66-3.27,3.09-.06-1.75,3.14-.64,4.08,6.3-4.29,4.16.18,9.18-1.59-2.21-1.16.09-4.2,4.06-6.19l-6.63,1.45c6.24-9.22,10.64-1.36,16.83-10.81l-1.37,3.71c3.49-4.44,15.86-12.8,16.53-20.31,1.21-.08,3.32.4,1.78,2.34,5.2-4.04,9.95-9.75,14.37-15.22,4.43-5.46,8.76-10.42,13.61-12.7l.32,1.81c1.52-1.97,1.1-5.06,4.4-6.03.33.58.35,1.81,1.23,1.09.58-1.29,2.83-6.47,5.8-8.05l-.79,3.18c10.78-7.34,11.03-16.86,17.84-25.11,3.31,3.28,11.3-3.04,15.31-6.19l.35.57c2.67-2.62,4.94-5.25,6.94-7.89,1.95-2.7,3.64-5.4,5.26-8.12,3.2-5.47,6.19-10.9,9.93-16.78,4.68-1.7,9.73-6.65,15.17-12.86,5.54-6.4,10.7-14.09,15.58-20.42-1.88,1.7-2.92-2-2.16-4.62,2.52-2.89.92-10.38,4.65-8.44-.15.43-.36.82-.54,1.23,4.87-1.21,6.45-9.62,6.85-16.69-1.82-.5-3.64-.96-5.46-1.38,2.28-4.04,2.43-9.65.94-15.13-1.65-5.51-5.08-10.47-9.1-14.29-4.04-3.88-8.57-6.38-12.21-8.37-3.67-2.08-6.59-3.71-8.27-6.13-4.26.14-8.92-.85-12.71.09l.58-2.89c-5.14-1.03-8.94-1.49-12.96-1.66-3.97-.14-8.34,0-13.99.72.73-.75,1.42-1.51,2.2-2.24-6.39.2-7.51,8.99-13.28,9.53l-2.03-4.27c-10.97.67-22.43-2.12-32.91,2.84.12-.66.32-1.95,2.08-2.29-2.59.19-7.67-.15-11.78.32-4.11.5-7.25,1.66-5.99,4.55-.56-3.89-11.34.92-17.01,3.32l.56-2.98c-4.53,4.22-4.54,5.33-11.31,7.29-1.69-.14-1.75-2.1.53-1.67-5.67-.74-3.88,3.31-10.71,2.71l2.2-2.18c-5.66.57-5.07,1.49-7.84,4.05-3.36,1.58-10.71.98-11.97-1.5-.5,1.7-3.22,4.32-6.64,4.12-.61-.9.49-1.71,1.05-2.1-9.71-.39-13.34,5.58-20.24,4.05-.31-.92-.81-1.31-1.4-1.49,7.42-1.41,13.45-2.19,12.92-1.89-.45-2.63-6.57-2.09-2.41-6.52-4.53,2.72-11.94,8.73-18.02,8.57-.33-.2-.66-.4-.95-.76l.55-.41c-1.4,0-2.56.47-3.61,1.13-1.95-.07-3.2-.17-5,.14-1.13-2.07-7.12.19-10.11.77.84,2.81-3.14,3.19,1,4.76-.51-.1.49-.46,2.44-1.01.43-.18.95-.34,1.21-.57-.04.09-.1.19-.15.3,1.93-.53,4.47-1.08,7.37-1.67-2.07,1.91-4.28,3.57-7.88,2.72-1.14,2.17-2.42,4.42-3.17,5.51-4.88-3.11-13.2-3.57-14.84-5.78-8.75,3.45-21.09,6.13-25.44,12.75-2.39,1.31-3.32-.81-4.49-1.42,1.34-.89,3.12-1.24,3.74-2.2-4.8,2.53-15.01,4.4-15.24,8.44-6.85.05,2.7-4.38-5.95-1.41l.89-1.45c-9.49-.65-15.93,3.62-22.51,7.96-6.6,4.35-13.48,8.23-24.09,7.61,1.46.04,2.18.04,2.64.57-11.29,1.86-22.24,6.05-32.99,10.54-5.4,2.19-10.81,4.29-16.3,6.03-5.45,1.85-10.98,3.28-16.71,3.97-6.35,1.22-6.13,3.73-9.06,6.86l-2.43-2.4-4.81,5.86c-7.64,6.04-18.1-1.15-27.06,8.33l2.24,1.33c-4.08,1.34-11.9,6.54-12.23,4.03-.25.53-.39,2.57-2.37,2.23l-.79-1.45c-2.84,2.22-5.63,4.56-8.4,6.89-7.87,2.35-1.56-6.47-12.5-1.73-3.76,2.45-9.38,9.64-7.39,9.93,1.65-.68,4.57-1,5.39.44l-3.28,2.47c1.42,4.68.82,10.42,11.13,9.36l4.91-5.55,2.98,1.2-5.13,2.55c3.88.63,4.91-2.01,6.45-4.2,1.02.9,2.25,1.29,3.66,1.15l4.14-7.03c1.52,1.4-1.18,4.66,3.33,3.78,1.99-3.21-4.5-2.67-.31-6.03,3.89.71,3.74,2.73,6.49-.52.99.93.57,1.98-.59,3.08,2.51-2.72,7.99-4.17,8.58-7.23,4.18,1.13,10.27-5.24,11.76-.83.56-1.41,4.17-5.57,7-6.93-3.21,7.22,10.97-4.1,11.75,1.92,2.05-6.26,13.39-7.54,19.41-12.75-.25.51-.74,1.55-1.45,1.54,4.08-1.1,5.75-.14,8.59-.22-.92-4.04,4.92-7.19,7.44-10.68,6.2,1.99-1.36,5.54,1.46,8.56-1.36-3.02,7.35-6.06,4.78-8.07,4.54.99,3.61,0,6.63,2.51-1.01-5.04,3.18-2.03,5.26-6.07,6.2.5,2.9,4.02,8.37.6,3.32.57-1.4,3.99-1.4,3.99l.06-.05ZM529.31,166.81v.06c-1.24.31-2.31.57-2.99.74.62-.17,1.49-.4,2.99-.8ZM541.66,164.4c-1.53.17-3.4.51-5.38.91-.62-.91-.34-2.02.92-2.21-.55.79,2.47.81,4.46,1.3ZM511.47,149.55c1.91-.79,2.69-.35,3.08.18-.93.24-2.01.52-3.41,1.02-.04.12-.13.27-.16.4.08-.59.19-1.15.49-1.61h0Z"></path>
    <path class="st1" d="M508.68,154.08c-.27.12-.41.28-.77.38.46.16.88.3,1.31.39.18-.36.36-.73.51-1.05-.36.09-.72.19-1.05.28h0Z"></path>
    <path class="st1" d="M554.47,644.79l.23-.16c-.23.09-.46.17-.69.15.22-.04.29.02.46.01h0Z"></path>
    <polygon class="st1" points="709.3 156.72 709.54 156.02 708.56 156.38 709.3 156.72"></polygon>
    <path class="st1" d="M499.85,689.3c-.28-.08-.65-.08-1.17.14.16.1.63,0,1.17-.14Z"></path>
    <path class="st1" d="M478.31,710.22l-3.76,2.24c1.73-.87,2.88-1.6,3.76-2.24Z"></path>
    <path class="st1" d="M460.84,725.35c.14.57.35.9.54,1.21l.05-.02-.59-1.2h0Z"></path>
    <path class="st1" d="M659.29,443.38c-.14-.17-.3-.33-.48-.44-1.31-.89-.57-.21.48.44Z"></path>
    <path class="st1" d="M632.59,533.54c.25-1.26.49-2.49.93-3.67-1.31,1.45-2.24,2.64-.93,3.67Z"></path>
    <path class="st1" d="M555.24,432.78v-.05c-.25.03-.48.05-.73.08l.72-.03h.01Z"></path>
    <path class="st1" d="M636.52,525.78c-1.61,1.24-2.45,2.63-3,4.1,1.09-1.18,2.43-2.53,3-4.1Z"></path>
    <path class="st1" d="M385.8,791.25l-.92.63c.14.14.19.3.2.44l.72-1.07Z"></path>
    <path class="st1" d="M385.08,792.32l-.71,1.07c.43-.37.79-.7.71-1.07Z"></path>
    <path class="st1" d="M382.84,795.61l1.53-2.22c-.69.57-1.61,1.2-1.53,2.22Z"></path>
    <path class="st1" d="M409.78,772.35l-.44-1.03c0,.29.14.63.44,1.03Z"></path>
    <path class="st1" d="M416.52,765.97c-1.82,1.29-5.65,1.98-7.52,4.53l.34.82c.04-2.14,6.79-2.62,7.18-5.35h0Z"></path>
    <path class="st1" d="M454.07,749.44c-2.08,1.6-4.18,3.18-6.31,4.73,1.78-.1,4.14-.21,1.7,2.4,9.57-4.24-3.18-.42,4.61-7.13Z"></path>
    <path class="st1" d="M472.82,733.85c-2.64,3.33,1.18,1.14,1.46,1.76,1.19-2.62,1.47-3.25-1.46-1.76Z"></path>
    <path class="st1" d="M591.73,604.48l1.79,2.01c1.78-2.75-.78-.68-1.79-2.01Z"></path>
    <polygon class="st1" points="601.85 569.76 598.64 571.22 599.64 573.9 601.85 569.76"></polygon>
    <polygon class="st1" points="628.97 565.63 628.4 566.99 630.92 562.08 628.97 565.63"></polygon>
    <path class="st1" d="M518.25,411.74l1.5,3.07c2.1-.9,2-4.63-1.5-3.07Z"></path>
    <path class="st1" d="M470.14,432.19c2.02.75,5.7-.11,6.84-2.59-2.63,1.21-5.76,1.51-6.84,2.59Z"></path>
    <path class="st1" d="M747.72,166.26l1.48,3.49c-.53-2.28-1.04-4.5-1.97-6.7.17,1.07.44,2.15.48,3.21h.01Z"></path>
  </g>
</svg>